<svg width="14" height="14" viewBox="0 0 14 14" fill="none" xmlns="http://www.w3.org/2000/svg">
<path d="M8.55033 8.54999V6.99999H8.54882C8.55076 6.69404 8.46114 6.39443 8.29137 6.13935C8.12159 5.88426 7.87935 5.68524 7.59551 5.56764C7.31167 5.45003 6.99908 5.41917 6.69755 5.47898C6.39602 5.53879 6.11921 5.68657 5.90237 5.90349C5.61161 6.19494 5.44897 6.5893 5.45016 6.99999C5.44923 7.40997 5.61193 7.80355 5.9025 8.0942C6.19308 8.38485 6.58774 8.54879 6.99974 8.54999H8.55033Z" fill="white"/>
<path fill-rule="evenodd" clip-rule="evenodd" d="M4.3322 0H9.6683C10.82 0.00291378 11.9233 0.460942 12.7357 1.27334C13.548 2.08573 14.0028 3.18595 14 4.332V14H4.3322C3.18052 13.997 2.07719 13.5389 1.2648 12.7266C0.452415 11.9142 -0.00252358 10.8141 1.16747e-05 9.668V4.332C-0.00265686 3.18591 0.452238 2.08568 1.26465 1.27331C2.07707 0.460925 3.18047 0.00291388 4.3322 0ZM7.00025 10.9225H10.9244L10.9234 7C10.9249 6.19273 10.676 5.40468 10.2106 4.74345C9.74524 4.08222 9.08611 3.58005 8.32322 3.3055V2.1325C8.32328 2.1144 8.31792 2.09669 8.30781 2.08163C8.2977 2.06658 8.28332 2.05487 8.26648 2.048C8.24965 2.04112 8.23114 2.03941 8.21332 2.04306C8.19551 2.04671 8.17919 2.05557 8.16645 2.0685L7.53637 2.708C7.52716 2.71746 7.51599 2.7248 7.50363 2.72952C7.49127 2.73424 7.47802 2.73621 7.46481 2.73531C7.45161 2.7344 7.43876 2.73064 7.42717 2.72428C7.41558 2.71793 7.40552 2.70913 7.3977 2.6985L7.07411 2.267C7.0656 2.25562 7.05454 2.24638 7.0418 2.24001C7.02906 2.23365 7.01501 2.23033 7.00075 2.23033C6.9865 2.23033 6.97244 2.23365 6.95971 2.24001C6.94697 2.24638 6.9359 2.25562 6.92739 2.267L6.60431 2.6985C6.59644 2.70905 6.58636 2.71779 6.57477 2.72409C6.56318 2.7304 6.55035 2.73413 6.53717 2.73504C6.524 2.73594 6.51078 2.73399 6.49843 2.72932C6.48608 2.72465 6.47489 2.71738 6.46563 2.708L5.83606 2.0685C5.82332 2.05557 5.807 2.04671 5.78919 2.04306C5.77137 2.03941 5.75286 2.04112 5.73603 2.048C5.71919 2.05487 5.70481 2.06658 5.6947 2.08163C5.68459 2.09669 5.67923 2.1144 5.67929 2.1325V3.3055C4.91615 3.57971 4.25674 4.08179 3.79123 4.74308C3.32572 5.40437 3.07682 6.1926 3.07857 7C3.07603 8.03762 3.48775 9.03376 4.22318 9.76934C4.95861 10.5049 5.95753 10.9197 7.00025 10.9225Z" fill="white"/>
</svg>
