<svg width="23" height="22" viewBox="0 0 23 22" xmlns="http://www.w3.org/2000/svg">
    <path d="M17.4 10C19.3167 10 22.4 6.91667 22.4 5C22.4 3.08333 19.3167 0 17.4 0C15.4833 0 12.4 3.08333 12.4 5C12.4 6.91667 15.4833 10 17.4 10Z"
          fill="currentColor"/>
    <path d="M17.4 22C19.3167 22 22.4 18.9167 22.4 17C22.4 15.0833 19.3167 12 17.4 12C15.4833 12 12.4 15.0833 12.4 17C12.4 18.9167 15.4833 22 17.4 22Z"
          fill="currentColor"/>
    <path d="M10.4 17C10.4 18.9167 7.31666 22 5.39999 22C3.48333 22 0.399994 18.9167 0.399994 17C0.399994 15.0833 3.48333 12 5.39999 12C7.31666 12 10.4 15.0833 10.4 17Z"
          fill="currentColor"/>
    <path d="M5.39999 10C7.31666 10 10.4 6.91667 10.4 5C10.4 3.08333 7.31666 0 5.39999 0C3.48333 0 0.399994 3.08333 0.399994 5C0.399994 6.91667 3.48333 10 5.39999 10Z"
          fill="currentColor"/>
</svg>
