<svg width="22" height="24" viewBox="0 0 22 24" xmlns="http://www.w3.org/2000/svg">
    <path d="M7 1C7 0.447715 6.55228 0 6 0C5.44772 0 5 0.447715 5 1V19.5858L1.70711 16.2929C1.31658 15.9024 0.683417 15.9024 0.292893 16.2929C-0.0976311 16.6834 -0.0976311 17.3166 0.292893 17.7071L6 23.4142L11.7071 17.7071C12.0976 17.3166 12.0976 16.6834 11.7071 16.2929C11.3166 15.9024 10.6834 15.9024 10.2929 16.2929L7 19.5858V1Z"
          fill="currentColor"/>
    <path d="M17 4.41421V23C17 23.5523 16.5523 24 16 24C15.4477 24 15 23.5523 15 23V4.41421L11.7071 7.70711C11.3166 8.09763 10.6834 8.09763 10.2929 7.70711C9.90237 7.31658 9.90237 6.68342 10.2929 6.29289L16 0.585787L21.7071 6.29289C22.0976 6.68342 22.0976 7.31658 21.7071 7.70711C21.3166 8.09763 20.6834 8.09763 20.2929 7.70711L17 4.41421Z"
          fill="currentColor"/>
</svg>
